# xmcd
#
# Track frame offsets: 
#        150
#        25350
#        39737
#        55155
#        65592
#        77625
#        108750
#        125475
#        142350
#        151180
#        165385
#        182175
#        207000
#
# Disc length: 2902 seconds
#
# Revision: 1
# Processed by: cddbd v1.5.2PL0 Copyright (c) Steve Scherf et al.
# Submitted via: ExactAudioCopy v1.0b3
#
DISCID=b10b540d
DTITLE=My Huyen, Chung Tu Luu, Randy - Hop Khuc Tinh Yeu 2
DYEAR=1993
DGENRE=
TTITLE0=My Huyen, Randy - Em La Tat Ca
TTITLE1=Chung Tu Luu - Chuyen Di Ve Sang
TTITLE2=My Huyen - Ngan Cach
TTITLE3=Randy, My Huyen - Pho dem
TTITLE4=Chung Tu Luu, My Huyen - Nua Dem Ngoai Pho
TTITLE5=Chung Tu Luu - Tinh Dep Muon Thuo
TTITLE6=Chung Tu Luu - Chuyen Tinh Nguoi Mang Ten Phuong
TTITLE7=My Huyen, Randy - Nhung Doi Hoa Sim
TTITLE8=My Huyen - Mua Rung
TTITLE9=Randy, My Huyen - Han Mac Tu
TTITLE10=Randy, My Huyen - Chuyen Tinh Lan and Diep
TTITLE11=Chung Tu Luu - Mua Nua Dem
TTITLE12=hoa tau - Cho vua long em
EXTD=
EXTT0=
EXTT1=
EXTT2=
EXTT3=
EXTT4=
EXTT5=
EXTT6=
EXTT7=
EXTT8=
EXTT9=
EXTT10=
EXTT11=
EXTT12=
PLAYORDER=
